<?xml version="1.0" standalone="no"?>
<!DOCTYPE svg PUBLIC "-//W3C//DTD SVG 20010904//EN"
 "http://www.w3.org/TR/2001/REC-SVG-20010904/DTD/svg10.dtd">
<svg version="1.0" xmlns="http://www.w3.org/2000/svg"
 width="265.000000pt" height="265.000000pt" viewBox="0 0 265.000000 265.000000"
 preserveAspectRatio="xMidYMid meet">
<metadata>
Created by potrace 1.14, written by Peter Selinger 2001-2017
</metadata>
<g transform="translate(0.000000,265.000000) scale(0.100000,-0.100000)"
fill="#000000" stroke="none">
<path d="M419 2224 c-30 -7 -55 -13 -56 -13 -2 -1 -9 -1 -16 -1 -8 0 -24 -9
-36 -19 -17 -15 -21 -25 -15 -43 8 -24 11 -36 18 -78 3 -14 9 -42 14 -62 6
-21 7 -38 3 -38 -3 0 -1 -4 5 -8 7 -4 14 -23 17 -42 3 -19 12 -60 21 -92 8
-31 17 -67 20 -80 3 -12 9 -38 15 -56 5 -18 10 -35 10 -37 -1 -8 11 -64 27
-140 15 -66 44 -112 64 -100 5 3 33 6 63 6 50 1 57 4 66 28 10 25 10 60 -3
126 -3 17 -8 77 -11 135 -3 58 -8 128 -10 155 -2 28 -6 91 -9 140 -12 177 -16
209 -25 218 -14 14 -100 15 -162 1z"/>
<path d="M1132 1595 c-90 -21 -156 -62 -214 -134 -10 -11 -15 -21 -12 -21 4 0
1 -6 -5 -14 -12 -14 -49 -115 -56 -156 -3 -14 -11 -52 -18 -85 -7 -33 -12
-104 -12 -157 1 -54 -2 -98 -6 -98 -15 0 -78 75 -95 112 -9 21 -21 38 -26 38
-5 0 -7 4 -4 9 7 11 -41 24 -54 16 -6 -4 -10 -12 -10 -19 0 -7 -14 -31 -31
-52 -50 -62 -65 -107 -71 -214 -4 -70 61 -241 115 -301 12 -13 35 -44 52 -69
16 -25 32 -47 35 -50 5 -5 36 -107 39 -130 2 -16 70 -44 110 -46 25 -1 99 -5
165 -8 65 -4 122 -8 126 -11 5 -3 11 -1 14 4 3 5 21 6 38 2 38 -8 1072 -7
1135 2 58 7 84 17 78 28 -4 5 -3 9 2 9 4 0 7 19 6 42 -1 24 -2 43 -3 43 -1 0
-3 11 -4 25 -2 14 -6 39 -10 55 -3 17 -8 41 -11 55 -2 14 -15 66 -28 117 -19
78 -21 96 -11 125 7 18 13 30 13 26 1 -4 12 3 26 16 14 13 33 23 43 23 38 -1
104 17 108 28 10 26 -126 205 -155 205 -6 0 -11 6 -11 13 0 24 -188 138 -266
161 -25 7 -45 24 -129 104 -76 72 -126 112 -142 112 -7 0 -13 5 -13 10 0 6 -7
10 -15 10 -8 0 -15 3 -15 8 0 4 -15 13 -32 21 -18 8 -35 17 -38 20 -21 25
-206 99 -305 122 -71 16 -240 18 -303 4z"/>
<path d="M537 1382 c-23 -3 -53 -32 -43 -43 2 -2 7 -21 10 -43 4 -21 9 -42 12
-47 9 -15 108 -1 120 16 13 18 11 57 -5 98 -11 28 -11 28 -94 19z"/>
</g>
</svg>
